<svg xmlns="http://www.w3.org/2000/svg" width="118.284" height="29.606" viewBox="0 0 118.284 29.606">
  <defs>
    <style>
      .cls-1 {
        fill: #fff;
      }
    </style>
  </defs>
  <g id="Group_6" data-name="Group 6" transform="translate(-18.716 -198.45)">
    <path id="Path_22" data-name="Path 22" class="cls-1" d="M18.1,33.105V28.027h5.474V22.683H28.64V40.978s.273,1.034,1.215,1.025,7.391,0,7.391,0v4.711H27.482s-3.779-.558-3.908-4.031c-.07-1.893-.064-4.567-.041-6.916.014-1.4.041-2.661.041-2.661Z" transform="translate(0.615 175.767)"/>
    <path id="Exclusion_5" data-name="Exclusion 5" class="cls-1" d="M4.408,23.675H0L.165,9.667C.151,9.459.144,9.251.144,9.049a9.05,9.05,0,1,1,9.05,9.05c-.3,0-.616-.016-.924-.047l-.355.016L4.408,18v5.674ZM12.144,11.4a2.5,2.5,0,1,0,2.5,2.5A2.5,2.5,0,0,0,12.144,11.4Zm-6.5,0a2.5,2.5,0,1,0,2.5,2.5A2.5,2.5,0,0,0,5.644,11.4ZM8.894,8a1.75,1.75,0,1,0,1.75,1.75A1.752,1.752,0,0,0,8.894,8Zm5.35-2.8a2.5,2.5,0,1,0,2.5,2.5A2.5,2.5,0,0,0,14.243,5.2Zm-10.4,0a2.5,2.5,0,1,0,2.5,2.5A2.5,2.5,0,0,0,3.844,5.2Zm5.1-3.9a2.5,2.5,0,1,0,2.5,2.5A2.5,2.5,0,0,0,8.944,1.3Z" transform="translate(38.722 204.017)"/>
    <g id="Group_5" data-name="Group 5" transform="translate(-3.385 124)">
      <path id="Path_8" data-name="Path 8" class="cls-1" d="M5.428-.889h2.99V-13.71h5.336V-16.1H.092v2.39H5.428Z" transform="translate(65 96.1)"/>
      <path id="Path_10" data-name="Path 10" class="cls-1" d="M35.673-.659c3.542,0,5.428-1.762,5.428-5.35V-16.1H38.137L38.111-5.857c0,1.87-.851,2.805-2.507,2.805a3.957,3.957,0,0,1-3.2-1.74L30.7-2.856A6.212,6.212,0,0,0,35.673-.659Z" transform="translate(65.159 96.1)"/>
      <path id="Path_11" data-name="Path 11" class="cls-1" d="M19.872-3.258V-7.452h7.774V-9.777H19.872v-3.955h8.763V-16.1H16.882V-.889H28.957V-3.258Z" transform="translate(65.09 96.1)"/>
      <path id="Path_12" data-name="Path 12" class="cls-1" d="M46.161-.889h2.99V-16.1h-2.99Z" transform="translate(65.215 96.1)"/>
      <path id="Path_13" data-name="Path 13" class="cls-1" d="M68.126-.889l-3.7-5a4.876,4.876,0,0,0,3.427-4.8c0-3.368-2.622-5.411-6.854-5.411H54.372V-.889h2.99V-5.322H61a5.931,5.931,0,0,0,.621-.022L64.906-.889Zm-3.289-9.8c0,1.912-1.357,3.042-3.979,3.042h-3.5V-13.71h3.5C63.48-13.71,64.837-12.6,64.837-10.689Z" transform="translate(65.336 96.1)"/>
      <path id="Path_14" data-name="Path 14" class="cls-1" d="M72.059-.889h2.99V-16.1h-2.99Z" transform="translate(65.336 96.1)"/>
    </g>
    <path id="Path_24" data-name="Path 24" class="cls-1" d="M2.646-4.9H.735V0h.7V-1.484H2.646c1.274,0,2.044-.644,2.044-1.708S3.92-4.9,2.646-4.9ZM2.625-2.093H1.435v-2.2h1.19c.9,0,1.365.4,1.365,1.1S3.521-2.093,2.625-2.093ZM11.858,0,10.7-1.645a1.546,1.546,0,0,0,1.078-1.547C11.774-4.256,11-4.9,9.73-4.9H7.819V0h.7V-1.491H9.73c.105,0,.21-.007.308-.014L11.1,0ZM9.709-2.086H8.519v-2.2h1.19c.9,0,1.365.4,1.365,1.1S10.605-2.086,9.709-2.086ZM17.22.056a2.483,2.483,0,0,0,2.6-2.506,2.483,2.483,0,0,0-2.6-2.506A2.491,2.491,0,0,0,14.609-2.45,2.491,2.491,0,0,0,17.22.056Zm0-.623A1.843,1.843,0,0,1,15.309-2.45,1.843,1.843,0,0,1,17.22-4.333a1.84,1.84,0,0,1,1.9,1.883A1.84,1.84,0,0,1,17.22-.567ZM22.988,0h2.065A2.426,2.426,0,0,0,27.7-2.45,2.426,2.426,0,0,0,25.053-4.9H22.988Zm.7-.609V-4.291h1.323A1.806,1.806,0,0,1,27-2.45,1.806,1.806,0,0,1,25.011-.609ZM32.9.056a1.923,1.923,0,0,0,2.072-2.17V-4.9h-.679v2.758c0,1.085-.5,1.575-1.386,1.575s-1.379-.49-1.379-1.575V-4.9h-.7v2.786A1.926,1.926,0,0,0,32.9.056Zm7.8,0a2.431,2.431,0,0,0,1.869-.77l-.455-.441a1.822,1.822,0,0,1-1.379.588A1.851,1.851,0,0,1,38.808-2.45a1.851,1.851,0,0,1,1.925-1.883,1.816,1.816,0,0,1,1.379.581l.455-.441A2.421,2.421,0,0,0,40.7-4.956a2.479,2.479,0,0,0-2.6,2.506A2.477,2.477,0,0,0,40.7.056ZM46.585,0h.693V-4.291h1.68V-4.9H44.9v.609h1.68Zm5.236,0h.7V-4.9h-.7ZM58.3.056A2.483,2.483,0,0,0,60.9-2.45a2.483,2.483,0,0,0-2.6-2.506A2.491,2.491,0,0,0,55.692-2.45,2.491,2.491,0,0,0,58.3.056Zm0-.623A1.843,1.843,0,0,1,56.392-2.45,1.843,1.843,0,0,1,58.3-4.333,1.84,1.84,0,0,1,60.2-2.45,1.84,1.84,0,0,1,58.3-.567ZM67.585-4.9v3.654L64.645-4.9h-.574V0h.7V-3.654L67.711,0h.574V-4.9Zm5.7,4.956c1.295,0,1.9-.644,1.9-1.393,0-1.8-2.968-1.05-2.968-2.247,0-.427.357-.777,1.19-.777a2.531,2.531,0,0,1,1.344.4l.231-.56A2.883,2.883,0,0,0,73.4-4.956c-1.288,0-1.876.644-1.876,1.4,0,1.82,2.968,1.064,2.968,2.261,0,.427-.364.756-1.211.756a2.522,2.522,0,0,1-1.617-.567l-.259.546A2.909,2.909,0,0,0,73.283.056Z" transform="translate(61.615 228)"/>
  </g>
</svg>
