<svg xmlns="http://www.w3.org/2000/svg" width="38.25" height="29.242" viewBox="0 0 38.25 29.242">
  <defs>
    <style>
      .cls-1 {
        fill: #fff;
      }
    </style>
  </defs>
  <path id="Union_3" data-name="Union 3" class="cls-1" d="M24.413,29.242H20.006l.165-14.009c-.014-.208-.021-.415-.021-.617a9.041,9.041,0,1,1,7.7,8.95H24.414v5.675h0Zm5.237-9.776a2.5,2.5,0,1,0,2.5-2.5A2.5,2.5,0,0,0,29.65,19.466Zm-6.5,0a2.5,2.5,0,1,0,2.5-2.5A2.5,2.5,0,0,0,23.15,19.466Zm4-4.15a1.75,1.75,0,1,0,1.75-1.75A1.752,1.752,0,0,0,27.15,15.316Zm4.6-2.05a2.5,2.5,0,1,0,2.5-2.5A2.5,2.5,0,0,0,31.75,13.266Zm-10.4,0a2.5,2.5,0,1,0,2.5-2.5A2.5,2.5,0,0,0,21.35,13.266Zm5.1-3.9a2.5,2.5,0,1,0,2.5-2.5A2.5,2.5,0,0,0,26.45,9.366ZM9.382,24.03S5.6,23.472,5.474,20c-.07-1.893-.064-4.567-.041-6.916.014-1.4.041-2.661.041-2.661H0V5.344H5.474V0h5.065V18.294s.274,1.034,1.216,1.025,7.391,0,7.391,0V24.03Z"/>
</svg>
